<svg xmlns="http://www.w3.org/2000/svg" version="1.1" xmlns:xlink="http://www.w3.org/1999/xlink" xmlns:svgjs="http://svgjs.com/svgjs" width="1440" height="560" preserveAspectRatio="none" viewBox="0 0 1440 560">
    <g mask="url(&quot;#SvgjsMask1008&quot;)" fill="none">
        <rect width="1440" height="560" x="0" y="0" fill="rgba(10, 1, 74, 1)"></rect>
        <path d="M310.48 558.51L315.35 558.51L315.35 577.33L310.48 577.33z" fill="rgba(245, 1, 0, 1)"></path>
        <path d="M398.08 417.47 a4.24 4.24 0 1 0 8.48 0 a4.24 4.24 0 1 0 -8.48 0z" stroke="rgba(1, 239, 239, 1)"></path>
        <path d="M593.8 189.25L599.55 189.25L599.55 226.92L593.8 226.92z" stroke="rgba(245, 1, 0, 1)"></path>
        <path d="M417.31 508.32L437.57 508.32L437.57 512.17L417.31 512.17z" fill="rgba(245, 1, 0, 1)"></path>
        <path d="M525.89 154.57 a42.18 42.18 0 1 0 84.36 0 a42.18 42.18 0 1 0 -84.36 0z" fill="rgba(1, 239, 239, 1)"></path>
        <path d="M715.36 234.61 a8.08 8.08 0 1 0 16.16 0 a8.08 8.08 0 1 0 -16.16 0z" stroke="rgba(1, 239, 239, 1)"></path>
        <path d="M96.71 270.88a10.51 10.51 0 1 0-7.2 19.75z" fill="rgba(245, 1, 0, 1)"></path>
        <path d="M281.93 107.9L306.87 107.9L306.87 132.84L281.93 132.84z" fill="rgba(245, 1, 0, 1)"></path>
        <path d="M924.61 342.9L945.51 342.9L945.51 363.8L924.61 363.8z" stroke="rgba(229, 251, 0, 1)"></path>
        <path d="M657.12 498.66 a54.1 54.1 0 1 0 108.2 0 a54.1 54.1 0 1 0 -108.2 0z" stroke="rgba(245, 1, 0, 1)"></path>
        <path d="M103.27 324.7a16.23 16.23 0 1 0 15.82-28.34z" fill="rgba(1, 239, 239, 1)"></path>
        <path d="M1181.24 74.05a25.53 25.53 0 1 0-16.21 48.42z" fill="rgba(1, 239, 239, 1)"></path>
        <path d="M1077.92 168.91 a51.93 51.93 0 1 0 103.86 0 a51.93 51.93 0 1 0 -103.86 0z" stroke="rgba(229, 251, 0, 1)"></path>
        <path d="M911.62 196.47L964.87 196.47L964.87 243.01L911.62 243.01z" stroke="rgba(1, 255, 18, 1)"></path>
        <path d="M1108.23 439.49L1148.85 439.49L1148.85 480.11L1108.23 480.11z" stroke="rgba(1, 255, 18, 1)"></path>
        <path d="M261.82 481.6L293.71 481.6L293.71 526.25L261.82 526.25z" stroke="rgba(1, 239, 239, 1)"></path>
        <path d="M1243.59 299.45 a35.19 35.19 0 1 0 70.38 0 a35.19 35.19 0 1 0 -70.38 0z" stroke="rgba(1, 239, 239, 1)"></path>
        <path d="M1048.08 571.04a48.67 48.67 0 1 0-49.44-83.85z" stroke="rgba(229, 251, 0, 1)"></path>
        <path d="M331.98 383.9 a49.78 49.78 0 1 0 99.56 0 a49.78 49.78 0 1 0 -99.56 0z" fill="rgba(1, 255, 18, 1)"></path>
        <path d="M991.51 341.86L1025.55 341.86L1025.55 375.9L991.51 375.9z" fill="rgba(1, 255, 18, 1)"></path>
        <path d="M1339.29 371.91L1367.7 371.91L1367.7 377.3L1339.29 377.3z" stroke="rgba(229, 251, 0, 1)"></path>
        <path d="M191.43 51.3a17.18 17.18 0 1 0-33.1 9.23z" fill="rgba(245, 1, 0, 1)"></path>
        <path d="M251.61 464.48L295.7 464.48L295.7 508.57L251.61 508.57z" fill="rgba(245, 1, 0, 1)"></path>
        <path d="M104.1 428.95a5.58 5.58 0 1 0-5.79 9.54z" fill="rgba(1, 255, 18, 1)"></path>
        <path d="M66.61 244.13 a12.66 12.66 0 1 0 25.32 0 a12.66 12.66 0 1 0 -25.32 0z" stroke="rgba(229, 251, 0, 1)"></path>
        <path d="M138.94 353.92a22.06 22.06 0 1 0 29.25-33.02z" fill="rgba(1, 239, 239, 1)"></path>
        <path d="M1328.09 371.86a44.28 44.28 0 1 0 57.02-67.76z" fill="rgba(229, 251, 0, 1)"></path>
        <path d="M175.43 14.95L187.31 14.95L187.31 61.51L175.43 61.51z" fill="rgba(245, 1, 0, 1)"></path>
        <path d="M604.22 398.85L628.31 398.85L628.31 414.81L604.22 414.81z" stroke="rgba(245, 1, 0, 1)"></path>
        <path d="M503.13 495.62L520.53 495.62L520.53 513.02L503.13 513.02z" fill="rgba(1, 255, 18, 1)"></path>
        <path d="M645.93 358.87L691.63 358.87L691.63 404.57L645.93 404.57z" fill="rgba(1, 255, 18, 1)"></path>
        <path d="M1060.94 394.85 a23.3 23.3 0 1 0 46.6 0 a23.3 23.3 0 1 0 -46.6 0z" stroke="rgba(229, 251, 0, 1)"></path>
        <path d="M1157.55 31.56a28.28 28.28 0 1 0-27.35 49.51z" fill="rgba(229, 251, 0, 1)"></path>
    </g>
    <defs>
        <mask id="SvgjsMask1008">
            <rect width="1440" height="560" fill="#ffffff"></rect>
        </mask>
    </defs>
</svg>